<svg viewBox="0 0 837 836" fill="currentColor" xmlns="http://www.w3.org/2000/svg">
  <path d="M268 278L128 418l290 290 290-290-141-141c-4-5-8-9-12-12L419 128 284 263c-6 4-11 10-16 15zm-14 71c5 21 18 38 35 50 4 3 7 8 7 13s-2 10-7 13c-20 14-34 37-36 63l-68-68 69-70zm88 227c24-2 46-14 60-32 4-5 10-9 17-9h1c7 0 13 3 17 8 14 17 34 29 57 32l-76 76-76-75zm244-93c-3-26-18-48-39-62-4-2-6-6-6-11v-1c0-4 2-8 6-11 18-11 31-29 36-50l68 68-65 67zm-103-236c-20 5-37 17-49 33-3 5-9 8-15 8s-12-3-15-8c-12-16-29-29-49-33l64-64 64 64z"/>
  <path d="M145 1C120 1 101 18 95 40l-2-.1C64 40 40 64 40 93l.1 2C17 101 0 120 0 145l144-.1.1-144z"/>
  <polygon points="144 145 144 167 126 167 126 168 84 168 84 252 168 252 168 209 168 191 190 191 190 168 251 168 251 85 168 85 168 145 144 145"/>
  <path d="M837 145c0-24-17-44-39-50l.1-2c0-29-24-53-53-53l-2 .1C737 18 717 1 693 1l.1 144 144 .1z"/>
  <polygon points="647 191 669 191 669 209 669 252 753 252 753 168 711 168 711 167 693 167 693 145 669 145 669 84 586 84 586 168 647 168 647 191"/>
  <path d="M693 836c24 0 44-17 50-39l2 .1c29 0 53-24 53-53l-.1-2c23-6 39-26 39-51l-144 .1-.1 144z"/>
  <polygon points="693 691 693 669 711 669 711 669 753 669 753 585 670 585 670 627 669 627 669 645 647 645 647 669 628 669 628 669 586 669 586 753 670 753 670 691 693 691"/>
  <path d="M0 691c0 24 17 44 39 50-.1.7-.1 1.3-.1 2 0 29 24 53 53 53l2-.1c6 23 26 39 51 39l-.1-144-144-.1z"/>
  <path d="M.2 347v71h71c0-39-32-71-71-71z"/>
  <path d="M418 71V0h-71c0 39 32 71 71 71z"/>
  <path d="M490 0h-71v71c39 0 71-32 71-71z"/>
  <path d="M837 347c-39 0-71 32-71 71h71v-71z"/>
  <path d="M837 490v-71h-71c0 39 32 71 71 71z"/>
  <path d="M418 765v71h71c0-39-32-71-71-71z"/>
  <polygon points="210 669 190 669 190 646 168 646 168 586 84 586 84 669 144 669 144 691 168 691 168 711 168 753 252 753 252 669 210 669 210 669"/>
  <path d="M347 836h71v-71c-39 0-71 32-71 71z"/>
  <path d="M.2 490c39 0 71-32 71-71H.2v71z"/>
</svg>
