<svg width="837" height="836" viewBox="0 0 837.4 836.39" fill="currentColor" xmlns="http://www.w3.org/2000/svg">
  <path d="M267.96,277.89l-140.36,140.36,289.77,289.77,290.64-290.64-140.95-140.95c-3.71-4.59-7.9-8.77-12.48-12.48l-136.34-136.34-134.69,134.69c-5.89,4.46-11.13,9.7-15.59,15.59ZM253.51,348.62c4.94,20.66,17.5,38.37,34.6,49.9,4.18,2.82,6.62,7.6,6.62,12.64s-2.4,9.76-6.54,12.58c-20.36,13.91-34.2,36.59-36.21,62.59l-68.09-68.09,69.62-69.62ZM341.83,576.19c24.31-1.88,45.71-14.11,59.75-32.34,4.06-5.28,10.23-8.5,16.89-8.5h1.17c6.63,0,12.78,3.2,16.85,8.45,13.53,17.46,33.83,29.36,56.96,31.89l-76.06,76.06-75.55-75.55ZM585.73,483.39c-2.85-25.95-17.56-48.32-38.6-61.59-3.75-2.36-6.12-6.4-6.12-10.84v-.8c0-4.41,2.34-8.42,6.05-10.79,17.83-11.39,30.99-29.37,36.19-50.49l68.49,68.49-66.01,66.01ZM482.11,247.75c-20.03,4.92-37.27,16.95-48.71,33.39-3.44,4.94-9.03,7.92-15.05,7.92s-11.58-2.96-15.02-7.87c-11.54-16.47-28.88-28.54-49.04-33.36l63.94-63.94,63.87,63.87Z"/>
  <path d="M144.51.52c-24.47,0-43.82,16.79-49.96,39.02-.66-.02-1.3-.1-1.97-.1-29.38,0-53.2,23.82-53.2,53.2,0,.63.07,1.23.09,1.86C16.75,100.56,0,120.41,0,145.03l144.49-.03.02-144.48Z"/>
  <polygon points="144.51 145.03 144.51 167.28 125.94 167.28 125.94 168.37 83.88 168.37 83.88 252.01 167.52 252.01 167.52 209.3 167.52 209.3 167.52 190.91 189.91 190.91 189.91 168.37 251.16 168.37 251.16 84.72 167.52 84.72 167.52 145.03 144.51 145.03"/>
  <path d="M837.4,145.27c0-24.47-16.79-43.82-39.02-49.96.02-.66.1-1.3.1-1.97,0-29.38-23.82-53.2-53.2-53.2-.63,0-1.23.07-1.86.09-6.06-22.72-25.91-39.47-50.53-39.47l.03,144.49,144.48.02Z"/>
  <polygon points="647.01 190.67 669.14 190.67 669.14 209.08 669.37 209.08 669.37 251.75 753.01 251.75 753.01 168.11 711.16 168.11 711.16 167.5 692.89 167.5 692.89 145.27 669.37 145.27 669.37 84.47 585.73 84.47 585.73 168.11 647.01 168.11 647.01 190.67"/>
  <path d="M692.65,835.86c24.47,0,43.82-16.79,49.96-39.02.66.02,1.3.1,1.97.1,29.38,0,53.2-23.82,53.2-53.2,0-.63-.07-1.23-.09-1.86,22.71-6.06,39.47-25.91,39.47-50.53l-144.49.03-.02,144.48Z"/>
  <polygon points="692.65 691.36 692.65 669.11 710.94 669.11 710.94 668.89 753.52 668.89 753.52 585.25 669.88 585.25 669.88 627.09 669.35 627.09 669.35 645.48 647.25 645.48 647.25 668.89 627.55 668.89 627.55 668.89 586.24 668.89 586.24 752.53 669.88 752.53 669.88 691.36 692.65 691.36"/>
  <path d="M0,691.12c0,24.47,16.79,43.83,39.02,49.96-.02.66-.1,1.3-.1,1.97,0,29.38,23.82,53.2,53.2,53.2.63,0,1.23-.07,1.85-.09,6.06,22.72,25.91,39.47,50.53,39.47l-.03-144.49-144.48-.02Z"/>
  <path d="M.25,346.82v71.38h71.38c0-39.42-31.96-71.38-71.38-71.38Z"/>
  <path d="M418.44,71.38V0h-71.38c0,39.42,31.96,71.38,71.38,71.38Z"/>
  <path d="M489.82,0h-71.38v71.38c39.42,0,71.38-31.96,71.38-71.38Z"/>
  <path d="M836.63,346.82c-39.42,0-71.38,31.96-71.38,71.38h71.38v-71.38Z"/>
  <path d="M836.63,489.57v-71.38h-71.38c0,39.42,31.96,71.38,71.38,71.38Z"/>
  <path d="M418.44,765.01v71.38h71.38c0-39.42-31.96-71.38-71.38-71.38Z"/>
  <polygon points="209.55 669.11 190.39 669.11 190.39 645.72 168.03 645.72 168.03 585.51 84.39 585.51 84.39 669.15 144.51 669.15 144.51 691.12 167.52 691.12 167.52 710.7 168.03 710.7 168.03 752.79 251.67 752.79 251.67 669.15 209.55 669.15 209.55 669.11"/>
  <path d="M347.06,836.39h71.38v-71.38c-39.42,0-71.38,31.96-71.38,71.38Z"/>
  <path d="M.24,489.57c39.42,0,71.38-31.96,71.38-71.38H.24v71.38Z"/>
</svg>
