<svg xmlns="http://www.w3.org/2000/svg" width="84" height="84" viewBox="0 0 838 838" fill="#252159"><path d="M418.993 127.868c2.972 1.676 5.227 3.955 7.597 6.369l1.676 1.671 5.545 5.58 3.982 3.986 8.571 8.606 13.567 13.616 21.476 21.554 38.414 38.545 13.471 13.524 8.405 8.438 3.879 3.9c7.633 7.751 7.633 7.751 15.693 15.048 3.756 3.196 6.923 6.791 10.182 10.484 5.113 5.646 10.569 10.964 15.961 16.34l3.994 3.995 10.765 10.752 11.279 11.271 21.323 21.302 24.29 24.269L709 417c-1.564 3.753-3.884 6.132-6.744 8.99l-1.48 1.487-4.95 4.937-3.569 3.574-9.837 9.824-10.597 10.593-18.37 18.354-26.561 26.537-43.089 43.053-41.865 41.824-2.605 2.604-12.939 12.931L419 709c-3.741-1.562-6.123-3.869-8.977-6.717l-1.483-1.472-4.923-4.92-3.564-3.548-9.795-9.78-10.562-10.536-23.087-23.051-14.403-14.386-39.846-39.807-2.575-2.575-5.169-5.168-2.592-2.591-2.595-2.594-41.701-41.633-42.772-42.715-24.032-23.994-20.446-20.429-10.444-10.428-9.538-9.541-3.472-3.456-4.675-4.69-2.637-2.634C128 420 128 420 128.082 417.859c1.532-3.101 4.002-5.339 6.44-7.735l1.764-1.769 5.891-5.856 4.208-4.204 9.082-9.047 14.357-14.308 22.712-22.634 40.657-40.525 14.275-14.221 8.883-8.851 4.121-4.101 5.625-5.604 1.649-1.634c2.977-2.978 5.631-6.082 8.254-9.37a73.99 73.99 0 0 1 3.434-2.999c6.21-5.321 11.869-11.215 17.62-17.021l3.915-3.939 8.386-8.443 13.262-13.334 2.266-2.276 4.585-4.603 30.846-31.022 20.854-20.961 11.023-11.091 10.352-10.401 3.797-3.833 5.184-5.196 1.516-1.563c3.345-3.278 3.345-3.278 5.953-3.452zm-5.113 62.004l-1.707 1.728-1.804 1.803-5.909 5.941-4.094 4.103-10.781 10.831-10.999 11.039L357 247c1.51 3.021 3.739 3.143 6.875 4.25 16.576 6.202 30.351 16.294 40.813 30.688 3.13 4.139 5.27 5.736 10.313 7.063 6.261.696 10.919-.135 16-4 2.911-3.158 5.456-6.544 8-10 10.28-13.745 26.237-21.29 42-27-5.736-7.003-12.155-13.319-18.547-19.715l-3.659-3.669-7.635-7.642-9.792-9.823-7.541-7.553-3.612-3.626-5.033-5.034-1.508-1.525c-4.461-4.42-5.415-3.896-9.793.459zm-165.256 165.38l-1.888 1.898-1.981 1.98-6.509 6.526-4.502 4.506-11.871 11.896-12.105 12.125L186 418c1.65 4.256 4.829 7.096 8.01 10.237l1.863 1.864 6.103 6.071 4.229 4.22 11.136 11.087 11.361 11.322L251 485c1.961-2.941 2.521-5.084 3.191-8.496 2.002-10.108 5.725-18.588 10.809-27.504l1.43-2.578c5.313-8.74 13.411-16.256 21.633-22.234 4.086-3.07 5.708-5.183 6.938-10.187.169-5.309-.612-7.981-4-12.062-3.321-3.484-6.987-6.354-10.816-9.254C266.457 382.1 259.524 366.969 254 351c-2.277 0-3.842 2.721-5.376 4.252zM584 351l-1.066 2.859c-7.246 19.017-17.48 33.549-33.809 45.828-4.504 3.421-4.504 3.421-7.125 8.313-.259 4.717-.03 7.817 3.145 11.465 2.518 2.235 5.065 4.274 7.765 6.275 18.249 13.577 29.609 32.709 33.09 55.26 3.78 0 4.72-1.367 7.308-3.935l1.724-1.757 1.834-1.832 5.99-6.039 4.157-4.17 10.934-11.008 11.161-11.22L651 419c-1.657-4.29-4.886-7.16-8.086-10.329l-1.888-1.893-6.186-6.168-4.289-4.288-8.991-8.967-11.548-11.528-8.856-8.843-4.26-4.254-5.94-5.919-1.793-1.794c-2.221-2.748-2.221-2.748-5.164-4.017zM401 546l-3.5 4c-13.856 16.119-32.982 23.509-53.5 27 4.066 4.88 8.328 9.469 12.832 13.945l1.983 1.983 6.428 6.411 4.481 4.476 11.748 11.723 12.006 11.986L417 651c2.883-1.307 4.946-2.697 7.176-4.936l1.827-1.819 1.968-1.99 2.1-2.099 6.85-6.883 4.758-4.767 12.507-12.557 12.769-12.809L492 578l-1-2a128.33 128.33 0 0 0-7.187-1.75c-19.061-4.486-34.911-14.45-47.5-29.562-4.128-4.841-7.894-7.102-14.187-8.625-8.901-.67-15.174 3.803-21.125 9.938zm269 39h85v85h-61v21h144c0 14.92-4.137 27.204-14.258 38.348-5.504 5.22-10.906 8.452-18.18 10.527-3.125 1.029-3.125 1.029-5.562 3.125-1.675 4.916-2.137 9.744-2.693 14.883-1.792 12.35-10.428 22.142-19.499 30.039C767.27 795.72 755.848 798.483 743 798l-.187 2.375c-2.74 12.224-11.432 21.755-21.281 29.09C712.439 834.979 703.493 837 693 837V692h-22v62h-85v-85h61v-23h22v-19l1-42zm-586 1h85v60h22v23h62v85h-85v-62h-22v145c-16.711-1.285-29.27-5.224-40.891-17.441C99.565 812.834 95.491 805.616 94 797l-1.949.141c-13.906.555-25.604-4.732-36.238-13.391C46.818 775.445 40.842 764.141 39 752a105.72 105.72 0 0 1-.062-5.312l.027-2.676L39 742l-1.871-.445C30.463 739.789 25.458 737.182 20 733l-2.094-1.559C8.057 723.543 1.849 711.438 0 699v-8h145v-21H84v-84zM146 1v144h22V85h84v84h-61v23h-22v61H84v-85l61-1v-21H0c0-15.331 4.809-27.446 15.375-38.637C22.137 101.275 29.921 96.424 39 95l.078-2.422c.836-16.179 6.57-29.29 18.41-40.508C68.886 42.676 80.434 39.314 95 40l.188-2.375C97.378 27.851 103.047 20.965 110 14l1.75-1.785C121.336 3.205 133.297 1 146 1zm547 0c15.459 0 27.399 4.982 38.637 15.469C737.183 22.409 744 31.524 744 40l2.676.078c14.937.706 28.83 5.857 39.324 16.922 9.373 11.296 14 24.325 14 39l2.633.305c11.291 2.332 21.094 11.195 27.617 20.32 6.212 9.782 7.75 17.777 7.75 29.375H694v22h60v85h-85v-61h-22v-23h-61V85h84v60h23V1zm145 346v144c-19.803-1.415-35.027-5.729-50-19l-1.859-1.574c-13.507-12.299-19.993-30.463-21.359-48.277-.639-19.748 6.195-38.646 19.639-53.141C798.954 354.007 817.215 347 838 347zM0 347c18.451 0 36.372 5.458 49.77 18.676L52 368l2.324 2.23C65.732 381.794 72.064 397.889 73 414l.16 2.219c.713 18.588-6.321 36.944-18.41 50.906C39.285 483.597 22.289 489.408 0 491V347zM347 0h144c0 20.184-6.987 37.746-20.937 52.375-16.422 15.387-35.215 20.509-57.203 19.965-18.992-.854-35.07-9.65-47.86-23.34-12.415-14.12-18-30.314-18-49zm117 780c15.101 12.904 24.22 29.204 27 49v8H347c0-19.834 7.278-37.466 21.063-51.687 25.708-25.4 67.378-27.131 95.938-5.312z"/></svg>
