<svg xmlns="http://www.w3.org/2000/svg" width="838" height="838" fill="#9926b7"><path d="M419.125 168.688l2.87.007c14.197.052 28.048.491 42.005 3.306l3.082.602C501.365 179.461 534.447 192.621 563 213l1.818 1.287C575.322 221.77 584.774 230.005 594 239l1.935 1.857c8.852 8.497 16.781 17.272 24.065 27.143l2.512 3.32c16.21 21.735 28.531 46.805 36.488 72.68l.808 2.603c7.11 23.319 10.421 47.166 10.442 71.522l.002 2.101c-.033 21.694-2.914 42.748-8.252 63.774l-.635 2.519c-9.831 37.909-29.836 72.217-56.111 101.004l-4.539 5.078c-4.616 5.242-9.362 9.924-14.715 14.398l-2.793 2.453C539.857 647.362 482.563 669.121 425 670l-2.493.04c-62.959.522-124.715-22.095-171.136-64.856l-4.961-4.461c-5.248-4.616-9.935-9.364-14.41-14.723l-2.523-2.898C214.24 565.551 201.833 546.055 192 525l-.905-1.911C163.764 464.956 161.392 395.307 183 335c9.491-26.126 22.398-50.424 40-72l2.363-2.98c12.459-15.288 26.64-29.461 42.637-41.02l3.441-2.562C279.634 210.392 288.152 205.03 297 200l1.947-1.121c21.799-12.447 45.764-20.403 70.241-25.629l2.802-.603c15.699-3.189 31.156-4.026 47.135-3.96zM336 336v166h167V336H336zm112 377c7.608 6.285 14.199 13.985 16.703 23.738 1.154 2.625 1.154 2.625 4.5 3.16l4.047.477c13.515 2.011 25.188 8.272 33.711 19.121 6.564 9.541 9.982 19.901 9.039 31.504l1.836.41c11.568 2.972 20.126 10.048 27.164 19.59 4.998 8.752 7.114 16.996 7 27l-58.187.063-2.222.001c-49.136.028-98.268-.165-147.403-.564l-2.237-.018L286 837c-.115-12.763 4.21-24.712 12.992-34.121 5.285-4.946 10.407-8.541 17.445-10.316 2.575-.764 2.575-.764 4.563-2.562 1.547-4.632 2.107-9.23 2.708-14.06 1.691-11.233 9.488-20.004 17.831-27.151 9.551-6.944 19.882-9.166 31.461-8.789l.375-2.207c2.733-12.215 11.984-21.68 22.137-28.391 16.238-9.151 37.484-6.954 52.488 3.598zM286 1h265c0 15.025-4.16 24.807-14.312 35.75-6.252 5.929-13.24 9.686-21.687 11.25l.141 1.984c.519 13.132-4.41 24.547-13.172 34.27C491.183 94.552 478.505 98.095 464 99l-.305 2.629c-2.014 9.765-9.002 18.433-17.078 24.02-12.828 8.042-26.106 10.551-40.992 7.164-13.227-3.837-23.239-12.377-30.285-24.148-1.784-3.548-2.677-6.758-3.34-10.664l-3.25.188c-12.941-.068-24.153-5.517-33.5-14.187-8.915-9.374-14.245-21.066-14.375-34.125L321 47l-3.812-1.062c-12.831-4.324-21.078-12.303-27.062-24.187C286.39 14.078 286 10.053 286 1zm552 286v262c-13.423 0-24.963-3.928-34.812-13.25C797.644 529.869 791 521.433 791 513l-2.457-.078c-13.879-.711-26.47-5.245-36.293-15.484-8.271-10.224-12.796-22.344-12.25-35.437l-1.617-.445c-12.286-3.699-21.756-10.481-28.207-21.738-5.945-12.221-7.874-23.218-3.551-36.316 6.268-15.782 16.243-23.967 31.375-30.5h2l.078-2.203c.844-14.958 6.055-26.84 16.98-37.203 6.993-5.741 15.15-10.123 24.254-10.863 3.438-.288 6.422-.604 9.688-1.73 1.747-2.394 2.402-4.498 3.199-7.344 1.297-4.303 3.897-7.298 6.801-10.656l1.672-2.027C812.279 290.278 824.078 287 838 287zM0 287c13.479 0 24.511 3.713 34.688 12.875C39.617 305.062 47 315.565 47 323l3.688-.25c12.548.039 24.009 6.225 33.313 14.25 9.885 11.523 12.617 22.334 14 37l2.203.371c10.843 2.438 19.458 9.825 25.609 18.816 6.319 10.64 9.003 21.864 6.527 34.066-3.365 12.337-9.864 22.301-20.34 29.746-10.983 6-10.983 6-15 6l.25 3.688c-.04 12.588-6.02 24.089-14.5 33.063C72.328 509.631 61.11 513.222 47 514l-.594 1.801c-4.507 12.492-12.539 22.76-24.535 28.766C14.049 547.935 8.664 549 0 549V287zm85 298h84v84h84v85h-85v-84H85v-85zM586 84h85v84h83v85h-84v-84h-84V84zm84 501h85v85h-84v83h-84v-84h83v-84zM168 85h84v84h-83v84H84v-85h84V85zm536 619h134c0 13.603-4.358 25.152-13.625 35.188-6.273 5.935-13.704 10.796-22.375 11.813l.188 3.25c-.07 13.207-5.986 25.206-14.937 34.684-8.836 8.115-19.955 13.265-32.062 13.316-1.397-.062-2.794-.137-4.187-.25l-1.062 3.813c-4.227 12.504-12.405 21.502-24 27.563-7.746 3.61-13.177 4.623-21.94 4.623V704zm0-704c16.314 1.255 26.474 4.886 37.688 16.688C746.022 21.852 751 29.108 751 36l2.457.078c14.337.734 26.793 5.549 36.855 16.109C798.92 62.545 801.977 73.866 803 87l2.273.813c12.342 4.725 22.312 12.197 28.23 24.25C836.892 119.94 838 125.269 838 134H704V0zM0 704h134v134c-15.94-1.226-26.018-4.439-37-16.129-4.293-5.172-10-12.897-10-19.871l-2.387-.043c-15.723-.688-26.618-6.555-37.363-17.707-6.057-7.038-9.021-13.722-10.145-22.881-.542-6.714-.542-6.714-4.09-12.03-2.467-.886-2.467-.886-5.125-1.488C18.191 744.994 10.818 736.529 6 728c-4.149-7.644-6-15.313-6-24zM134 0v134H0c1.463-16.092 5.219-27.683 17.813-38.375C23.255 91.53 30.004 87 37 87l-.105-2.055c-.355-12.2 3.342-22.923 11.145-32.43 8.814-9.281 20.051-15.729 33.012-16.758 2.333-.007 4.624.053 6.949.242l.348-2.672C90.5 22.355 98.524 14.01 107.107 7.37 115.335 1.868 124.231 0 134 0z"/></svg>
