<svg xmlns="http://www.w3.org/2000/svg" width="839" height="836" fill="#f58c29"><path d="M358.098 112.128c3.123 1.432 5.308 3.889 7.68 6.31l1.716 1.715 5.584 5.633 3.884 3.897 10.199 10.273 10.417 10.476L418 171c4.016-1.602 6.668-4.433 9.623-7.475l1.667-1.69 3.567-3.632 5.65-5.733 16.058-16.301 9.837-9.966 3.741-3.812 5.234-5.302 1.553-1.617c1.452-1.44 1.452-1.44 4.071-3.471 3.802.259 5.662 2.289 8.272 4.902l2.579 2.561 2.818 2.845 3.005 2.997 8.25 8.271 8.9 8.906 15.417 15.442 22.29 22.326 36.165 36.219 35.131 35.192 2.187 2.19 10.863 10.875L725 355c-1.844 3.987-4.454 6.723-7.551 9.778l-1.715 1.716-5.616 5.584-3.893 3.884-10.249 10.199-10.457 10.417L665 417c5.68 6.941 12.05 13.177 18.398 19.496l3.606 3.602 9.44 9.415 9.653 9.633L725 478c-1.475 3.41-3.384 5.637-5.999 8.259l-2.549 2.57-2.816 2.808-2.979 2.995-8.207 8.222-8.843 8.869-19.345 19.381-12.074 12.091-33.415 33.454-2.161 2.162-4.337 4.338-2.175 2.175-2.177 2.178-34.94 35.008-35.853 35.911-20.138 20.176-17.146 17.163-8.751 8.767-8.009 8.006-4.274 4.308-2.564 2.53-2.211 2.213C482 723 482 723 479.904 722.874c-3.159-1.45-5.374-3.955-7.775-6.404l-1.746-1.744-5.681-5.73-3.951-3.964-10.377-10.451-10.598-10.657L419 663c-6.941 5.68-13.177 12.05-19.496 18.398l-3.602 3.606-9.415 9.44-9.633 9.653L358 723c-3.415-1.476-5.636-3.387-8.256-6.01l-2.568-2.556-2.806-2.824-2.993-2.987-8.216-8.23-8.863-8.867-15.353-15.37-22.198-22.222-36.015-36.051-34.985-35.026-2.178-2.18-10.818-10.826L113 480c1.844-3.987 4.454-6.723 7.551-9.778l1.715-1.716 5.616-5.584 3.893-3.884 10.249-10.199 10.457-10.417L173 418c-5.68-6.941-12.05-13.177-18.398-19.496l-3.606-3.602-9.44-9.415-9.653-9.633L113 357c1.475-3.41 3.384-5.637 5.999-8.259l2.549-2.57 2.816-2.808 2.979-2.995 8.207-8.222 8.843-8.869 19.345-19.381 12.074-12.091 33.415-33.454 2.161-2.162 4.337-4.338 2.175-2.175 2.177-2.178 34.94-35.008 35.853-35.911 20.138-20.176 17.146-17.163 8.751-8.767 8.009-8.006 4.274-4.308 2.564-2.53 2.211-2.213C356 112 356 112 358.098 112.128zM252 250c1.621 3.689 3.927 6.551 6.438 9.688 29.1 37.191 46.23 82.578 51.563 129.312l.29 2.479c4.929 47.083-3.475 96.032-24.29 138.521l-1.23 2.518c-8.337 16.877-18.229 32.325-29.907 47.076-1.865 2.247-1.865 2.247-2.863 4.406 3.653-1.606 6.464-3.878 9.563-6.375C315.406 535.488 385.738 519.011 453 527c46.911 6.208 89.665 24.991 127.087 53.662 1.903 1.331 3.812 2.356 5.913 3.338l-1.108-1.467C571.84 565.204 560.316 547.611 551 528l-.996-2.056C540.076 505.332 533.886 483.5 530 461l-.496-2.754c-4.805-27.599-4.328-57.697.496-85.246l.472-2.787c7.282-41.492 25.476-80.221 51.222-113.364 1.326-1.878 2.333-3.77 3.306-5.849l-1.445 1.097c-58.432 44.134-127.426 64.881-200.641 55.508-46.425-6.58-89.77-25.055-126.347-54.391-1.472-1.14-3.019-2.181-4.568-3.214zM693 0c15.878 1.323 29.202 4.991 40.375 16.996C739.099 24.055 742.978 31.124 745 40l1.949-.141C758.95 39.38 769.241 43.153 779 50l1.855 1.262c10.058 7.665 16.013 19.855 18.895 31.863.345 3.963.33 7.9.25 11.875l1.617.445c14.685 4.421 25.389 13.461 32.641 26.883C838.03 130.32 839 137.135 839 146H694v45h-47v-46h46V0zm-45 645h46v46h145c-1.341 16.094-5.164 29.583-17.599 40.389C814.993 736.479 807.468 742 799 742l.141 1.949c.55 13.759-4.491 25.83-13.328 36.176-9.86 10.46-21.412 16.456-35.875 17.438-3.202.273-3.202.273-5.937 1.438-1.939 2.856-2.872 5.552-3.918 8.836-3.214 9.398-12.438 17.973-20.922 22.77-2.688 1.257-5.377 2.367-8.16 3.395l-3.5 1.313C704 836 704 836 693 836V692h-45v-47zM146 0v145h45v46h-46v-45H0c2.195-17.564 5.514-30.771 19.445-42.297C34 94 34 94 40 94l-.141-1.695c-.68-15.101 5.656-27.536 15.578-38.492C63.449 46.132 74.888 40.256 86 39l2.539-.324A279.38 279.38 0 0 1 95 38l.883-2.344C98.515 28.968 101.24 23.393 106 18l1.891-2.242C118.087 4.542 131.136 0 146 0zm-1 645h47v47h-46v144c-15.413 0-27.009-4.215-38.312-14.812C101.996 815.17 95 805.599 95 797l-3.187.188c-14.226-.075-27.374-5.96-37.559-15.703-9.633-10.618-14.895-23.886-15.379-38.172L39 741l-2.672-.344c-11.651-2.297-21.715-11.389-28.203-20.969C2.509 710.191 1.006 702.063 0 691h145v-46zm249-252h50v51h-50v-51z"/></svg>
