<svg xmlns="http://www.w3.org/2000/svg" width="84" height="84" viewBox="0 0 837 837" fill="#1d6e8a"><path d="M396 41h45v333h22v22h333v43H463v25h-22v333h-45V464h-23v-25H41v-43h332v-22h23V41zM74.063 150.875c19.129-.563 37.785 5.898 52.188 18.5L131 174l2.117 2.082c13.496 14.152 19.442 32.435 20.195 51.73-.313 11.879-2.941 23.592-8.312 34.188l-1.527 3.016c-9.478 17.395-24.904 29.611-43.562 36.051-20.846 5.919-42.717 3.843-61.75-6.629-18.33-11.106-31.481-27.954-36.66-48.812-4.394-19.848-1.514-41.37 9.422-58.664 1.943-2.733 3.967-5.356 6.078-7.961l1.645-2.141c11.995-14.826 30.439-23.137 49.043-25.547 2.124-.182 4.247-.309 6.375-.437zM757.406 532.84c21.131-.732 39.722 6.831 55.43 20.656 15.777 14.891 23.787 34.507 24.539 56.004-.421 12.013-2.933 23.764-8.375 34.5l-1.527 3.016c-10.519 19.305-27.584 30.894-48.297 37.188-19.569 4.91-40.674 1.596-58.176-8.203-19.116-11.877-30.698-29.497-36-51-3.389-19.191-.564-39.365 9.887-56.004 1.948-2.752 3.985-5.382 6.113-7.996l1.832-2.363c11.53-14.054 29.815-22.982 47.668-25.324l6.906-.473zm-633.879 16.191c2.572 2.251 5.033 4.576 7.473 6.969l2.348 2.238c13.208 13.479 19.382 32.679 19.902 51.262-.684 21.779-8.952 41.111-24.25 56.5-16.366 14.797-37.084 20.934-58.894 20.132C54.937 685.182 40.8 679.479 29 670l-2.52-2.023C11.716 655.412 2.268 638.305 0 619c-1.712-22.708 4.134-43.507 19-61 26.931-28.849 73.194-34.151 104.527-8.969zM272.633 14.098C290.012 28.064 301.295 45.603 304 68c1.095 21.076-3.375 40.495-17 57l-1.832 2.359c-11.621 14.189-29.345 22.227-47.105 25.328a122.69 122.69 0 0 1-4.062.313l-2.562.16c-21.442.67-40.364-6.474-56.309-20.727-15.767-15.04-23.716-34.301-24.504-55.934.421-12.013 2.933-23.764 8.375-34.5l1.527-3.016c9.047-16.603 23.958-29.232 41.992-35.137 23.987-7.058 49.526-5.174 70.113 10.25zM811 170l2.488 2.207c14.922 14.016 22.089 32.696 23.762 52.797.501 21.532-7.746 41.285-22.25 56.996-12.56 13.149-31.027 21.546-49.25 22.203-22.942.379-42.477-5.9-59.41-21.844-15.427-15.556-22.6-34.882-22.589-56.665.253-16.966 6.177-32.194 16.249-45.694l1.613-2.176c12.349-15.29 30.966-23.959 50.137-26.574 21.469-1.614 43.054 4.206 59.25 18.75z"/><path d="M654 14c16.281 13.129 27.37 29.182 31 50 1.611 22.903-1.64 43.849-16.988 61.77L666 128l-1.793 2.074c-13.432 14.577-32.419 21.677-51.812 23.211-21.608.562-41.394-7.181-57.055-21.926-15.046-15.172-22.608-34.167-22.84-55.422.205-18.769 6.805-36.914 19.5-50.937l1.723-2C579.275-4.777 623.774-7.361 654 14zM271.523 697.656c17.343 12.9 27.843 30.074 32.039 51.172 2.874 20.84-2.127 41.176-14.562 58.172-2.846 3.498-5.843 6.782-9 10l-1.824 1.898c-14.99 14.372-35.665 18.674-55.711 18.371-20.621-.727-38.615-10.851-52.652-25.52-13.09-14.916-19.48-33.73-19.062-53.523 1.777-22.936 11.246-41.249 28.063-56.914 26.151-21.878 64.768-21.997 92.711-3.656zm383.649 1.547C671.054 711.751 681.726 728.901 685 749c1.863 22.798-2.387 44.048-17.25 61.938-12.749 14.572-30.944 24.619-50.348 26.286-22.087 1.253-41.33-3.662-58.402-18.223l-2.504-1.926C543.642 806.393 534.99 788.484 533 772c-1.435-23.507 2.9-44.584 18.802-62.619 26.968-29.254 71.039-32.634 103.37-10.178zM506 507h142c0 14.84-4.402 26.201-14.437 37.25C628.228 549.345 617.743 557 610 557l-.078 2.422c-.666 12.892-3.909 22.439-11.922 32.578l-1.844 2.5c-6.88 7.978-16.956 13.298-27.156 15.5l-6.937.5c-3.263.305-3.263.305-6.062 1.5-1.915 2.831-2.815 5.508-3.844 8.762-3.713 10.399-13.577 18.649-23.156 23.551C522 647 522 647 506 649V507zm0-318c15.054 0 26.682 3.986 37.813 14.313C549.317 209.186 556 218.694 556 227l3.75-.187c14.066.066 25.924 6.246 35.961 15.773 8.813 9.295 14.525 20.734 14.352 33.727l-.027 2.676L610 281l1.73.34c12.282 2.988 22.557 11.034 29.27 21.66 4.94 9.069 7 16.595 7 27H506V189zM189 507h141v141c-13.176 0-21.615-2.087-32-10l-3.125-2.25c-6.912-6.611-11.519-14.841-14.875-23.75v-2l-1.73.141c-13.793.614-25.532-5.231-35.957-13.828-8.972-8.37-14.71-19.486-15.551-31.805-.01-2.85.054-5.665.238-8.508l-2.375-.187c-11.954-2.679-21.461-10.974-28.383-20.848C190.3 525.566 189 518.394 189 507zm141-318v141H189c0-14.621 4.085-25.94 14.125-36.687 6.557-6.257 14.226-10.66 22.875-13.312l.262-2.605C227.723 265.102 230.86 254.561 239 245l1.75-2.562c7.142-7.737 17.862-13.547 28.25-15.437a144.7 144.7 0 0 1 6.25-.062l3.266.027L281 227l.344-2.672c2.293-11.631 11.373-21.681 20.906-28.203C311.377 190.718 319.408 189 330 189z"/></svg>
