<svg xmlns="http://www.w3.org/2000/svg" width="838" height="838" fill="#d51668"><path d="M520 189l2.412 1.054c45.731 20.194 86.368 55.888 111.55 99.165l2.188 3.711c14.914 25.082 24.28 52.517 29.849 81.07l.505 2.507c5.285 27.497 5.184 60.08-.505 87.493l-.618 3.011C660.904 488.187 654.45 508.516 645 528l-1.104 2.287c-27.881 56.997-78.844 103.248-138.833 124.401-12.503 4.28-25.12 7.821-38.062 10.5l-2.223.469c-15.037 2.961-30.118 3.722-45.402 3.656l-2.639-.006c-21.891-.077-42.531-2.858-63.736-8.307l-2.218-.553C308.862 649.842 271.949 625.548 241 596l-2.043-1.918c-5.138-4.95-9.515-10.512-13.957-16.082l-2.633-3.223c-23.502-28.982-39.523-63.356-48.055-99.59l-.577-2.398c-3.769-16.811-5.24-33.698-5.127-50.894l-.019-8.685C168.518 349.899 195.379 289.252 239 244l1.619-1.685c7.06-7.312 14.298-14.125 22.381-20.315l1.646-1.271c9.992-7.679 20.44-14.437 31.354-20.729l2.232-1.293C364.938 160.573 450.141 158.183 520 189zM372.313 335.5L336 336v166h166V335c-64.85-.065-64.85-.065-129.687.5zM704 0h134v133c-15.44 0-24.715-3.429-36.031-13.875-5.631-5.928-9.395-13.403-11.969-21.125l-2.93-.297C774.572 96.268 765.647 93.439 756 85l-1.871-1.516C743.78 74.357 740.161 60.2 739 47l-2.238-.777c-13.139-4.958-22.913-13.139-29.039-25.879C704.858 13.249 704.667 8.002 704 0zM0 0h134c-1.294 15.524-4.571 26.429-16.234 37.031C111.738 41.937 105.704 45.645 98 47l-.078 2.203C97.222 61.608 93.912 71.359 86 81l-1.738 2.152C77.109 91.132 65.723 96.954 55 98c-2.692.122-5.303.098-8 0l-.445 1.652C44.69 105.92 41.844 110.744 38 116l-1.75 2.625C29.454 125.799 20.529 130.618 11 133H0V0zm838 704v133H704c1.131-12.441 3.298-21.201 11-31l1.602-2.055c3.113-3.524 6.006-5.892 10.363-7.66 6.393-2.484 6.393-2.484 12.035-6.285 1.642-4.034 2.064-7.533 2.461-11.824C742.477 767.765 749.342 757.78 757 751c9.947-7.814 21.298-12.032 34-11l.375-1.801C794.183 726.917 801.583 717.694 811 711c8.843-5.017 16.898-7 27-7zM0 704c13.667 1.051 22.763 3.053 33 12l1.797 1.445C40.727 722.667 44.025 729.802 47 737v3l3.25-.187c12.727.067 24.688 5.605 33.906 14.219 8.386 8.955 14.092 20.318 13.906 32.781l-.027 2.395L98 791l1.801.375c11.952 2.974 21.556 10.962 27.887 21.41C132.129 821.059 134 828.639 134 838L0 837V704zm838-357v144c-19.803-1.415-35.027-5.729-50-19l-1.859-1.574c-13.507-12.299-19.993-30.463-21.359-48.277-.639-19.748 6.195-38.646 19.639-53.141C798.954 354.007 817.215 347 838 347zM0 347c18.838 0 36.361 5.64 50.047 18.943L54 370l2.012 1.918C64.731 380.794 69.899 393.939 72 406l.391 2.164C75.258 427.102 69.968 446.445 59 462c-11.647 14.693-26.437 24.472-45 28l-14 1V347zM347 0h144c0 20.184-6.987 37.746-20.937 52.375-16.422 15.387-35.215 20.509-57.203 19.965-18.992-.854-35.07-9.65-47.86-23.34-12.415-14.12-18-30.314-18-49zm117 780c15.503 13.247 24.256 29.767 27 50v7H347c0-19.834 7.278-37.466 21.063-51.687 25.708-25.4 67.378-27.131 95.938-5.312zM126 627h43v42h42v43h-43v-42h-42v-43zm543 0h43v43h-42v42h-42v-43h41v-42zM168 126h42v43h-41v41h-43v-43h42v-41zm459 0h43v42h42v42h-43v-42h-42v-42z"/></svg>
