<svg xmlns="http://www.w3.org/2000/svg" width="84" height="84" fill="#f4afbe"><path d="M41 19c5.437 4.53 10.465 9.343 15.438 14.375l2.217 2.23L64 41c-1.514 3.568-3.605 5.837-6.352 8.547l-2.578 2.559-2.695 2.645-2.719 2.691L43 64c-3.668-1.539-5.986-3.755-8.766-6.57l-2.695-2.715-2.789-2.84-2.836-2.863L19 42c4.53-5.437 9.343-10.465 14.375-15.437l2.23-2.217L41 19zm23.938-7.375C68 12 68 12 69.938 13.688 71 16 71 16 71.188 18.438 69.303 22.504 65.942 24.092 62 26c-2.336.849-4.57 1.443-7 2 .608-6.083 2.974-15.486 9.938-16.375zM55 56l5.25 1.813 2.953 1.02C65.891 59.954 67.833 61.067 70 63c.938 2.438.938 2.438 1 5-1.062 2.313-1.062 2.313-3 4-2.875.688-2.875.688-6 0-3.344-3.271-5.673-7.537-7-12v-4zM17.875 11.563C21 12 21 12 23.125 13.813 25.769 18.307 27.374 23.06 29 28c-6.412-1.559-11.544-2.958-16-8-.5-3.187-.5-3.187 0-6 2-2 2-2 4.875-2.437zM29 57l-2.312 5.813-1.301 3.27C24.136 68.715 23.315 70.279 21 72c-3.062.313-3.062.313-6 0-2-2-2-2-2.5-4.812.574-3.658 1.686-4.908 4.641-7.082C25.395 55.198 25.395 55.198 29 57zm6 4c5.685 3.663 5.685 3.663 6.495 7.1.095 2.428.029 4.788-.12 7.212l-.082 2.533L41 84c-4.875-1.875-4.875-1.875-6-3l-.098-4.473.01-2.725.025-2.865.014-2.877L35 61zm26-26l9.813-.25 2.814-.102 2.705-.039 2.491-.063C81 35 81 35 82.792 36.899 84 39 84 39 84 41l-8.687.375-2.475.152c-5.999.146-5.999.146-8.536-1.89-1.384-1.66-1.384-1.66-3.302-4.637zm-53.648-.098l2.578.01 2.695.025 2.719.014L22 35c-3.723 5.685-3.723 5.685-7.006 6.495-2.294.095-4.516.03-6.806-.12l-2.389-.082L0 41l1-5c2.349-1.174 3.738-1.115 6.352-1.098zM37 0h4l.375 8.188.152 2.33c.146 5.659.146 5.659-1.89 8.149-1.66 1.384-1.66 1.384-4.637 3.333l-.125-9.312-.051-2.67-.02-2.568-.032-2.365C35 3 35 3 37 0zm11 61l.313 9.813.127 2.814c.046 2.552.048 4.867-.439 7.373-2.52 2.137-2.52 2.137-5 3l-.25-9.25-.102-2.645c-.099-6.503-.099-6.503 2.305-9.715C47 61 47 61 48 61zm21.547-18.488l5.203.176 2.691.068L84 43c-.863 2.48-.863 2.48-3 5-3.401.661-6.739.468-10.187.313l-2.85-.068L61 48c2.293-4.089 3.975-5.346 8.547-5.488zM0 43l8.75-.312 2.5-.127c2.352-.047 4.444-.032 6.75.439 2.578 2.52 2.578 2.52 4 5l-9.875.125-2.84.051-2.715.02-2.507.032C2 48 2 48 0 46v-3zM43 0c3.875.875 3.875.875 5 2l.098 4.473-.01 2.725-.025 2.865-.014 2.877L48 22c-2.48-1.422-2.48-1.422-5-4-.634-3.1-.472-6.102-.312-9.25l.068-2.547L43 0z"/></svg>
