<svg xmlns="http://www.w3.org/2000/svg" width="48" height="48" viewBox="0 0 512 512" fill="currentColor"><path d="M501.551 462.958H314.514v-37.616h56.637c46.217 0 83.816-37.6 83.816-83.816v-.702c0-5.771-4.678-10.449-10.449-10.449H287.466v-18.882h5.926c46.217 0 83.817-37.6 83.817-83.816 0-5.771-4.678-10.449-10.449-10.449H267.76c5.113-37.555 37.414-66.598 76.401-66.598 31.002 0 58.9 18.551 71.071 47.262 2.253 5.314 8.387 7.794 13.699 5.542 5.313-2.253 7.794-8.385 5.542-13.699-15.453-36.451-50.901-60.003-90.312-60.003-31.323 0-59.26 14.753-77.218 37.668V98.426c0-27.231 22.154-49.384 49.384-49.384 16.145 0 31.327 7.999 40.615 21.396 3.288 4.743 9.797 5.922 14.541 2.634 4.743-3.287 5.921-9.797 2.634-14.541-13.191-19.028-34.794-30.388-57.79-30.388-25.392 0-47.68 13.537-60.031 33.771C243.893 41.68 221.605 28.143 196.214 28.143c-22.994 0-44.597 11.359-57.788 30.386-3.288 4.743-2.11 11.252 2.633 14.541 4.742 3.288 11.253 2.109 14.541-2.633 9.288-13.397 24.471-21.394 40.615-21.394 27.23 0 49.384 22.154 49.384 49.384v68.971c-17.958-22.914-45.895-37.667-77.218-37.667-39.409 0-74.859 23.553-90.312 60.004-2.252 5.312.229 11.446 5.542 13.699 5.312 2.252 11.446-.229 13.699-5.542 12.171-28.711 40.069-47.263 71.071-47.263 38.987 0 71.288 29.043 76.401 66.598h-99.591c-5.771 0-10.449 4.678-10.449 10.449 0 46.217 37.6 83.816 83.816 83.816h5.926v18.882H67.482c-5.771 0-10.449 4.678-10.449 10.449v.702c0 46.217 37.6 83.816 83.816 83.816h56.637v37.616H10.449C4.678 462.958 0 467.636 0 473.407s4.678 10.449 10.449 10.449h491.102c5.771 0 10.449-4.678 10.449-10.449s-4.678-10.449-10.449-10.449zM218.609 290.592c-20.519 0-38.771-9.875-50.264-25.12h88.955c5.771 0 10.449-4.678 10.449-10.449 0-5.771-4.678-10.449-10.449-10.449h-99.291a52.78 52.78 0 0 1-1.452-6.451h198.886c-4.993 29.737-30.917 52.47-62.051 52.47h-74.783zm47.959 20.898v18.742h-21.136V311.49h21.136zm-125.719 92.954c-15.737-.001-30.142-5.811-41.188-15.396h85.363c5.771 0 10.449-4.678 10.449-10.449s-4.678-10.449-10.449-10.449H83.86a62.544 62.544 0 0 1-5.176-16.879h354.632c-4.698 30.083-30.786 53.173-62.165 53.173H140.849zm152.767 78.514h-75.233v-37.616h75.233v37.616z"/><path d="M218.966 368.15h-.137c-5.771 0-10.449 4.678-10.449 10.449 0 5.771 4.678 10.449 10.449 10.449h.137c5.771 0 10.449-4.678 10.449-10.449 0-5.771-4.678-10.449-10.449-10.449zM291.241 244.573h-.137c-5.771 0-10.449 4.678-10.449 10.449 0 5.771 4.678 10.449 10.449 10.449h.137c5.771 0 10.449-4.678 10.449-10.449 0-5.771-4.678-10.449-10.449-10.449zM431.737 217.167c-5.771 0-10.449 4.678-10.449 10.449v.137c0 5.771 4.678 10.449 10.449 10.449 5.771 0 10.449-4.678 10.449-10.449v-.137c0-5.771-4.678-10.449-10.449-10.449zM80.855 217.167c-5.771 0-10.449 4.678-10.449 10.449v.137c0 5.771 4.678 10.449 10.449 10.449 5.771 0 10.449-4.678 10.449-10.449v-.137c0-5.771-4.678-10.449-10.449-10.449zM136.431 87.84c-5.771 0-10.449 4.678-10.449 10.449v.137c0 5.771 4.678 10.449 10.449 10.449 5.771 0 10.449-4.678 10.449-10.449v-.137c0-5.771-4.678-10.449-10.449-10.449zM376.161 87.84c-5.771 0-10.449 4.678-10.449 10.449v.137c0 5.771 4.678 10.449 10.449 10.449 5.771 0 10.449-4.678 10.449-10.449v-.137c0-5.771-4.678-10.449-10.449-10.449z"/></svg>
