<svg xmlns="http://www.w3.org/2000/svg" width="48" height="48" viewBox="0 0 50 50" fill="currentColor"><path d="M5.875 15.906C2.641 16.027 0 18.68 0 21.813V42.187C0 43.731 1.27 45 2.813 45H5.094C5.574 47.832 8.031 50 11 50c2.969 0 5.426-2.168 5.906-5h16.188C33.574 47.832 36.031 50 39 50c2.969 0 5.43-2.168 5.906-5h.406C47.578 45 50 43.641 50 40.688V32.812c0-.941-.199-2.062-.563-3.156-.02-.047-1.73-4.773-3.218-8.344-1.602-3.953-3.918-5.406-8.532-5.406H5.876zM7.313 21h6.374C14.988 21 16 22.012 16 23.313v4.374C16 28.988 14.988 30 13.688 30H7.312C6.012 30 5 28.988 5 27.688v-4.375C5 22.012 6.012 21 7.313 21zm15 0h7.374C30.988 21 32 22.012 32 23.313v4.374C32 28.988 30.988 30 29.688 30H22.31C21.012 30 20 28.988 20 27.688v-4.375C20 22.012 21.012 21 22.313 21zm16 0h5.562c.176.328.34.699.5 1.094C50.629 25.098 50 28.906 50 30h-9.188C39.012 30 38 28.988 38 27.688v-4.375C38 22.012 39.012 21 40.313 21zM11 40c2.207 0 4 1.793 4 4 0 .348-.074.68-.156 1C14.398 46.723 12.86 48 11 48s-3.398-1.277-3.844-3c-.082-.32-.156-.652-.156-1 0-2.207 1.793-4 4-4zm28 0c2.207 0 4 1.793 4 4 0 .348-.074.68-.156 1C42.398 46.723 40.86 48 39 48s-3.398-1.277-3.844-3c-.082-.32-.156-.652-.156-1 0-2.207 1.793-4 4-4z"/></svg>
