<svg xmlns="http://www.w3.org/2000/svg" width="48" height="48" viewBox="0 0 320 320"><circle cx="160" cy="160" r="160" fill="currentColor"/><g fill="var(--cream,#f7ead7)" transform="translate(25,25) scale(.84)"><path d="M191.332 79.288c21.858 0 39.643-17.788 39.643-39.644C230.975 17.788 213.19 0 191.332 0c-21.854 0-39.645 17.788-39.645 39.644 0 21.856 17.78 39.644 39.645 39.644z"/><path d="M148.244 139.196l1.596-57.893c0-15.562-12.659-28.221-28.221-28.221-4.344 0-8.575 1.038-12.607 3.086a13.25 13.25 0 0 0-.981.402L47.578 88.862a13.29 13.29 0 0 0-2.054 1.047l-2.129 1.155a4.12 4.12 0 0 0-.761.496c-7.774 5.268-12.402 13.961-12.402 23.333v176.717c0 15.563 12.659 28.221 28.221 28.221 13.152 0 24.62-9.37 27.458-22.095a3.57 3.57 0 0 0 .763-2.767V129.731l29.565-13.94v28.667c0 1.709.812 3.323 2.194 4.333.331.241.688.446 1.058.606 8.084 12.237 36.391 49.004 38.347 50.521 2.811 2.184 6.148 3.329 9.634 3.329 8.704 0 15.792-7.082 15.792-15.791 0-4.483-1.922-8.734-5.313-11.749L148.244 139.196z"/><path d="M284.225 107.508h-1.684V79.439c0-15.192-12.358-27.548-27.551-27.548-15.191 0-27.548 12.356-27.548 27.548a5.376 5.376 0 0 0 10.751 0c0-9.262 7.538-16.798 16.797-16.798 9.266 0 16.799 7.536 16.799 16.798v28.069H181.42a5.376 5.376 0 0 0-5.376 5.375v49.05a5.376 5.376 0 0 0 5.376 5.375h102.805a5.376 5.376 0 0 0 5.375-5.375v-49.05a5.376 5.376 0 0 0-5.375-5.375z"/></g></svg>
